<!DOCTYPE svg PUBLIC "-//W3C//DTD SVG 1.1//EN" "http://www.w3.org/Graphics/SVG/1.1/DTD/svg11.dtd">
<!-- Uploaded to: ICON Repo, www.svgrepo.com, Transformed by: ICON Repo Mixer Tools -->
<svg fill="#ff4757" width="64px" height="64px" version="1.1" viewBox="144 144 512 512" xmlns="http://www.w3.org/2000/svg">
<g id="SVGRepo_bgCarrier" stroke-width="0"/>
<g id="SVGRepo_tracerCarrier" stroke-linecap="round" stroke-linejoin="round"/>
<g id="SVGRepo_iconCarrier"> <g> <path d="m234.69 612.86h330.62c12.523 0 24.539-4.9766 33.398-13.836 8.8555-8.8555 13.832-20.871 13.832-33.398v-330.62c0-12.527-4.9766-24.539-13.832-33.398-8.8594-8.8555-20.875-13.832-33.398-13.832h-330.62c-12.527 0-24.543 4.9766-33.398 13.832-8.8594 8.8594-13.836 20.871-13.836 33.398v330.62c0 12.527 4.9766 24.543 13.836 33.398 8.8555 8.8594 20.871 13.836 33.398 13.836zm-15.742-377.86-0.003906-0.003906c0-4.1758 1.6602-8.1797 4.6133-11.133 2.9531-2.9531 6.957-4.6094 11.133-4.6094h330.62c4.1758 0 8.1797 1.6562 11.133 4.6094 2.9492 2.9531 4.6094 6.957 4.6094 11.133v166.73l-51.797-51.797c-2.957-2.9805-6.9805-4.6602-11.18-4.6602-4.1953 0-8.2227 1.6797-11.176 4.6602l-114.78 114.77-67.543-67.543h0.003907c-2.957-2.9805-6.9805-4.6562-11.18-4.6562s-8.2227 1.6758-11.18 4.6562l-83.285 83.285z"/> <path d="m455.1 305.85c0 30.434-24.668 55.105-55.102 55.105s-55.105-24.672-55.105-55.105 24.672-55.102 55.105-55.102 55.102 24.668 55.102 55.102"/> </g> </g>
</svg>